<svg width="14" height="14" viewBox="0 0 14 14" fill="none" xmlns="http://www.w3.org/2000/svg">
<path fill-rule="evenodd" clip-rule="evenodd" d="M7 12.5C10.0376 12.5 12.5 10.0376 12.5 7C12.5 4.76928 11.172 2.84874 9.26345 1.98585C9.57576 2.67628 9.75 3.44295 9.75 4.25C9.75 7.28756 7.28757 9.75 4.25 9.75C3.44295 9.75 2.67628 9.57576 1.98585 9.26345C2.84875 11.172 4.76929 12.5 7 12.5ZM0.0446285 7.79483C0.439267 11.2866 3.40276 14 7 14C10.866 14 14 10.866 14 7C14 3.40275 11.2866 0.439265 7.79483 0.0446266C7.7947 0.0446118 7.79457 0.0445969 7.79444 0.0445821C7.78525 0.043544 7.77605 0.0425238 7.76685 0.0415214C7.51501 0.0140803 7.25915 -1.90735e-06 7 -1.90735e-06C6.47268 -1.90735e-06 6.41006 0.841891 6.81457 1.18019C6.87808 1.2333 6.93992 1.28835 7 1.34525C7.04957 1.39219 7.09794 1.4404 7.14505 1.4898C7.14899 1.49392 7.15291 1.49805 7.15683 1.50219C7.83447 2.2188 8.25 3.18588 8.25 4.25C8.25 6.45914 6.45914 8.25 4.25 8.25C3.18588 8.25 2.21881 7.83447 1.50219 7.15682C1.49805 7.15291 1.49393 7.14898 1.4898 7.14505C1.4404 7.09794 1.39219 7.04957 1.34525 7C1.28836 6.93992 1.2333 6.87808 1.18019 6.81457C0.841893 6.41006 0 6.47267 0 7C0 7.25915 0.0140823 7.515 0.0415233 7.76685C0.0425257 7.77605 0.043546 7.78524 0.044584 7.79443C0.0445988 7.79457 0.0446137 7.7947 0.0446285 7.79483Z" fill="white" fill-opacity="0.85"/>
</svg>
